HIERARCHY
ROOT Hips
{
  OFFSET 0.0 0.0 0.0
  CHANNELS 6 Xposition Yposition Zposition Zrotation Yrotation Xrotation
  JOINT LHipJoint
  {
    OFFSET 0.0 0.0 0.0
    CHANNELS 3 Zrotation Yrotation Xrotation
    JOINT LeftUpLeg
    {
      OFFSET 1.363059998 -1.794630051 0.839290023
      CHANNELS 3 Zrotation Yrotation Xrotation
      JOINT LeftLeg
      {
        OFFSET 2.448110104 -6.726130009 0.0
        CHANNELS 3 Zrotation Yrotation Xrotation
        JOINT LeftFoot
        {
          OFFSET 2.562200069 -7.039589882 0.0
          CHANNELS 3 Zrotation Yrotation Xrotation
          JOINT LeftToeBase
          {
            OFFSET 0.157639995 -0.433109999 2.322550058
            CHANNELS 3 Zrotation Yrotation Xrotation
            End Site
            {
              OFFSET 0.0 -0.0 1.189659953
            }
          }
        }
      }
    }
  }
  JOINT RHipJoint
  {
    OFFSET 0.0 0.0 0.0
    CHANNELS 3 Zrotation Yrotation Xrotation
    JOINT RightUpLeg
    {
      OFFSET -1.305520058 -1.794630051 0.839290023
      CHANNELS 3 Zrotation Yrotation Xrotation
      JOINT RightLeg
      {
        OFFSET -2.54253006 -6.985549927 0.0
        CHANNELS 3 Zrotation Yrotation Xrotation
        JOINT RightFoot
        {
          OFFSET -2.568259954 -7.056230068 0.0
          CHANNELS 3 Zrotation Yrotation Xrotation
          JOINT RightToeBase
          {
            OFFSET -0.164729998 -0.452589989 2.363149881
            CHANNELS 3 Zrotation Yrotation Xrotation
            End Site
            {
              OFFSET -0.0 -0.0 1.21081996
            }
          }
        }
      }
    }
  }
  JOINT LowerBack
  {
    OFFSET 0.0 0.0 0.0
    CHANNELS 3 Zrotation Yrotation Xrotation
    JOINT Spine
    {
      OFFSET 0.028270001 2.035589933 -0.193379998
      CHANNELS 3 Zrotation Yrotation Xrotation
      JOINT Spine1
      {
        OFFSET 0.05672 2.04885006 -0.042750001
        CHANNELS 3 Zrotation Yrotation Xrotation
        JOINT Neck
        {
          OFFSET 0.0 0.0 0.0
          CHANNELS 3 Zrotation Yrotation Xrotation
          JOINT Neck1
          {
            OFFSET -0.054170001 1.74624002 0.172020003
            CHANNELS 3 Zrotation Yrotation Xrotation
            JOINT Head
            {
              OFFSET 0.10407 1.761360049 -0.123970002
              CHANNELS 3 Zrotation Yrotation Xrotation
              End Site
              {
                OFFSET 0.0372 1.770439982 -0.062410001
              }
            }
          }
        }
        JOINT LeftShoulder
        {
          OFFSET 0.0 0.0 0.0
          CHANNELS 3 Zrotation Yrotation Xrotation
          JOINT LeftArm
          {
            OFFSET 3.362410069 1.200889945 -0.311210006
            CHANNELS 3 Zrotation Yrotation Xrotation
            JOINT LeftForeArm
            {
              OFFSET 4.982999802 -0.0 -0.0
              CHANNELS 3 Zrotation Yrotation Xrotation
              JOINT LeftHand
              {
                OFFSET 3.483560085 -0.0 -0.0
                CHANNELS 3 Zrotation Yrotation Xrotation
                JOINT LeftFingerBase
                {
                  OFFSET 0.0 0.0 0.0
                  CHANNELS 3 Zrotation Yrotation Xrotation
                  JOINT LeftHandIndex1
                  {
                    OFFSET 0.715260029 -0.0 -0.0
                    CHANNELS 3 Zrotation Yrotation Xrotation
                    End Site
                    {
                      OFFSET 0.576659977 -0.0 -0.0
                    }
                  }
                }
                JOINT LThumb
                {
                  OFFSET 0.0 0.0 0.0
                  CHANNELS 3 Zrotation Yrotation Xrotation
                  End Site
                  {
                    OFFSET 0.585470021 -0.0 0.585470021
                  }
                }
              }
            }
          }
        }
        JOINT RightShoulder
        {
          OFFSET 0.0 0.0 0.0
          CHANNELS 3 Zrotation Yrotation Xrotation
          JOINT RightArm
          {
            OFFSET -3.136600018 1.374050021 -0.404650003
            CHANNELS 3 Zrotation Yrotation Xrotation
            JOINT RightForeArm
            {
              OFFSET -5.241899967 -0.0 -0.0
              CHANNELS 3 Zrotation Yrotation Xrotation
              JOINT RightHand
              {
                OFFSET -3.444169998 -0.0 -0.0
                CHANNELS 3 Zrotation Yrotation Xrotation
                JOINT RightFingerBase
                {
                  OFFSET 0.0 0.0 0.0
                  CHANNELS 3 Zrotation Yrotation Xrotation
                  JOINT RightHandIndex1
                  {
                    OFFSET -0.622529984 -0.0 -0.0
                    CHANNELS 3 Zrotation Yrotation Xrotation
                    End Site
                    {
                      OFFSET -0.501900017 -0.0 -0.0
                    }
                  }
                }
                JOINT RThumb
                {
                  OFFSET 0.0 0.0 0.0
                  CHANNELS 3 Zrotation Yrotation Xrotation
                  End Site
                  {
                    OFFSET -0.509559989 -0.0 0.509559989
                  }
                }
              }
            }
          }
        }
      }
    }
  }
}
MOTION
Frames: 7
Frame Time: 0.0083333
0.0 15.893400192 0.0 -36.333782196 82.506996155 -60.412967682 0.0 -0.0 0.0 5.99820137 28.590402603 -7.232700825 27.240877151 18.693500519 111.624382019 -0.241399989 -8.821397781 4.953900337 0.476099938 4.424999714 12.275499344 0.0 -0.0 0.0 2.683600187 1.830400467 -19.401603699 -28.253902435 -18.281198502 114.818283081 0.052499995 5.54820013 -2.003099918 -0.093800016 -1.974699497 5.435699463 -0.368299931 -2.253700018 16.078699112 7.653999805 -1.979100108 -2.831100464 9.322602272 -0.459699482 -11.958800316 -11.957900047 1.093999624 11.622900009 4.169100285 0.703999877 16.11810112 3.268699646 0.113800034 2.970500231 0.0 -0.0 0.0 19.522703171 -61.531604767 -64.642997742 57.26958847 -55.537284851 -32.079288483 0.0 -0.0 12.588000298 7.774600506 -7.377799511 -1.004399896 -7.125 0.0 0.0 -13.830497742 22.587896347 7.677102089 0.0 -0.0 0.0 -84.859268188 75.014579773 -123.819694519 -48.577713013 52.40549469 -25.042705536 0.0 -0.0 18.49710083 -9.235198021 -15.195897102 2.440499544 7.125 -0.0 0.0 16.934402466 -44.674201965 0.140299305 
-0.166899681 15.917699814 -0.138700485 -32.333553314 82.890357971 -55.600944519 0.0 -0.0 0.0 5.201301098 28.514499664 -7.275601387 27.150817871 18.726985931 111.343605042 -0.207199976 -8.220002174 4.836400509 0.595399976 4.939699173 13.736698151 0.0 -0.0 0.0 2.532000303 1.897100449 -19.177604675 -28.309782028 -18.256595612 114.996482849 0.054299992 5.619799137 -2.011300087 -0.016999997 -0.840699852 2.310599566 -0.565799952 -2.214399815 15.791096687 7.558299541 -1.995699525 -2.880299807 9.310998917 -0.467300266 -11.837698936 -11.894201279 1.209900379 11.593299866 4.092600346 0.855700493 15.774697304 3.227199078 0.192299977 2.858799696 0.0 -0.0 0.0 18.654397964 -61.331424713 -63.513908386 58.761505127 -55.970806122 -33.312599182 0.0 -0.0 12.402099609 8.165903091 -7.1799016 -1.027500629 -7.125 0.0 0.0 -13.56679821 22.773801804 7.462697983 0.0 -0.0 0.0 -85.055259705 74.918632507 -124.095375061 -48.646800995 52.435012817 -25.097499847 0.0 -0.0 18.155103683 -9.18570137 -15.201703072 2.428100109 7.125 -0.0 0.0 16.980302811 -44.673992157 0.140800089 
-0.331399918 15.958200455 -0.282000542 -29.950899124 82.809661865 -52.388008118 0.0 -0.0 0.0 5.221800327 28.233503342 -7.828300953 27.162303925 18.722805023 111.379302979 -0.163299993 -7.553700924 5.377399445 0.717999935 5.414898872 15.095696449 0.0 -0.0 0.0 3.105999947 2.107900143 -18.863302231 -28.334165573 -18.245817184 115.074684143 0.0537 5.586399555 -1.99589932 -0.012300002 -0.714900017 1.964700103 -0.533700049 -2.202800035 15.517998695 7.770298958 -1.95059979 -2.867499828 9.503499031 -0.441999584 -11.665598869 -12.030900955 0.728700221 11.144102097 3.716200113 0.285600036 15.948498726 3.141499281 -0.115799978 3.030799866 0.0 -0.0 0.0 17.222595215 -60.445697784 -61.514793396 60.873023987 -56.538116455 -35.068515778 0.0 -0.0 11.697502136 8.251900673 -7.10500145 -1.027700186 -7.125 0.0 0.0 -13.511401176 22.845504761 7.407599926 0.0 -0.0 0.0 -84.841926575 74.685897827 -123.405410767 -48.96509552 52.569503784 -25.349996567 0.0 -0.0 17.083499908 -8.940798759 -15.288500786 2.375499964 7.125 -0.0 0.0 17.226602554 -44.729496002 0.118698925 
-0.484899521 16.024000168 -0.430299759 -27.148361206 82.620941162 -48.784057617 0.0 -0.0 0.0 5.430700779 27.652006149 -9.097902298 27.409408569 18.629306793 112.150894165 -0.11339999 -7.001200676 6.472000599 1.075899839 6.59349966 18.516395569 0.0 -0.0 0.0 3.714100599 2.430900574 -18.437799454 -28.295705795 -18.262798309 114.951705933 0.063599989 5.71239996 -1.708199501 -0.047200009 -1.401800156 3.855000973 0.201399982 -2.092900276 15.427500725 7.583599091 -1.673699975 -3.015099764 8.790498734 -0.363200098 -11.851900101 -12.069597244 0.905399561 12.193399429 4.289599419 0.282399952 14.58829689 3.306499958 -0.093899995 2.450399876 0.0 -0.0 0.0 17.712602615 -62.135009766 -63.623607635 60.328979492 -56.396999359 -34.614982605 0.0 -0.0 13.725702286 7.218500137 -8.97450161 -1.131900191 -7.125 0.0 0.0 -14.091901779 21.039197922 8.344800949 0.0 -0.0 0.0 -82.698898315 74.725784302 -121.463317871 -49.035999298 52.599208832 -25.406295776 0.0 -0.0 16.586799622 -8.598899841 -14.882599831 2.224200249 7.125 -0.0 0.0 17.394201279 -44.300590515 0.310095727 
-0.684099197 16.002099991 -0.554300308 -24.652040482 82.569404602 -45.475070953 0.0 -0.0 0.0 5.538001537 28.858297348 -7.29969883 27.107774734 18.742898941 111.209480286 -0.163600013 -7.612999916 5.567900181 1.460700274 7.638600826 21.621702194 0.0 -0.0 0.0 4.109500408 2.79640007 -18.717102051 -28.456701279 -18.19090271 115.466300964 0.066399999 5.609499931 -1.424599767 -0.064999998 -1.644299746 4.52369976 0.338000089 -2.051700115 15.227000237 7.638400555 -1.587100148 -3.078200579 8.741901398 -0.328399956 -11.821401596 -12.015298843 0.700899959 12.505700111 4.214999676 -0.044399757 13.976999283 3.271899223 -0.252899945 2.24469924 0.0 -0.0 0.0 16.765119553 -62.254135132 -62.84942627 61.811397552 -56.773597717 -35.852390289 0.0 -0.0 13.801098824 6.972300529 -9.039000511 -1.10070014 -7.125 0.0 0.0 -14.260196686 20.98290062 8.469599724 0.0 -0.0 0.0 -82.358673096 74.685089111 -121.265899658 -48.983100891 52.577095032 -25.364299774 0.0 -0.0 16.47769928 -8.061800957 -13.89440155 1.948000073 7.125 -0.0 0.0 17.54549408 -43.293300629 0.764101565 
-0.830699921 16.07859993 -0.698900223 -22.30635643 82.671028137 -42.451934814 0.0 -0.0 0.0 5.151501179 28.227907181 -8.378198624 27.233472824 18.696205139 111.601295471 -0.132200018 -7.161299706 5.97329998 1.53979969 7.833297253 22.208799362 0.0 -0.0 0.0 4.408000946 2.690000772 -17.996601105 -28.354494095 -18.236810684 115.139205933 0.068399973 5.521199703 -1.184299827 -0.097599991 -2.014900684 5.546800137 0.21510002 -2.066799879 15.153198242 7.71119976 -1.621100068 -3.141499996 8.906999588 -0.329300404 -11.84059906 -10.752500534 0.536499619 12.727601051 2.667599916 -0.02659996 13.472298622 2.770700216 -0.208499998 2.253799915 0.0 -0.0 0.0 16.034015656 -62.737213135 -62.826927185 62.704101562 -56.988498688 -36.600101471 0.0 -0.0 14.397099495 6.719400406 -9.114198685 -1.069200277 -7.125 0.0 0.0 -14.43200016 20.916406631 8.600899696 0.0 -0.0 0.0 -81.953094482 74.802482605 -120.728485107 -49.223293304 52.677402496 -25.555189133 0.0 -0.0 16.285804749 -8.004199982 -13.481401443 1.877600193 7.125 -0.0 0.0 17.465898514 -42.891197205 0.939902544 
-0.982699394 16.139400482 -0.84679985 -19.139612198 82.669258118 -38.722000122 0.0 -0.0 0.0 4.860399723 27.874492645 -8.652497292 27.19859314 18.70929718 111.492401123 -0.101500057 -6.719998837 6.343500614 1.280499816 7.171099186 20.223398209 0.0 -0.0 0.0 4.751799583 2.795799971 -17.237499237 -28.283004761 -18.268428802 114.911117554 0.068600021 5.405500412 -0.983500004 -0.107200012 -2.110800028 5.812000275 0.750799775 -1.998499274 15.091101646 7.30880022 -1.489000082 -3.133100033 8.089099884 -0.333599716 -11.833001137 -10.225299835 0.604399681 13.924399376 3.397800207 -0.122099996 11.905800819 2.914699316 -0.213699967 1.518899798 0.0 -0.0 0.0 16.39349556 -63.437904358 -63.129798889 63.674884796 -57.212192535 -37.41519165 0.0 -0.0 15.075899124 6.514700413 -8.918001175 -1.014200211 -7.125 0.0 0.0 -14.592599869 21.112901688 8.635704041 0.0 -0.0 0.0 -79.667640686 74.825416565 -118.711036682 -49.575393677 52.822795868 -25.835496902 0.0 -0.0 16.476997375 -8.534799576 -14.238798141 2.114000082 7.125 -0.0 0.0 17.241397858 -43.674690247 0.58230114 
